<?xml version="1.0" encoding="UTF-8" standalone="no"?>
<!-- Created with Inkscape (http://www.inkscape.org/) -->

<svg
   version="1.1"
   id="svg1"
   width="153.60001"
   height="153.60001"
   viewBox="0 0 153.60001 153.60001"
   xmlns="http://www.w3.org/2000/svg"
   xmlns:svg="http://www.w3.org/2000/svg">
  <defs
     id="defs1" />
  <g
     id="g1">
    <rect
       style="fill:#a6a6a6;fill-opacity:1;stroke-width:1.02308"
       id="rect4"
       width="153.58354"
       height="153.58745"
       x="0.015373471"
       y="0.0032571703" />
    <path
       style="fill:#6e84f8;fill-opacity:1"
       d="M 23.872565,92.765633 C 18.548506,91.991427 15.67063,88.340348 15.685557,82.37901 c 0.02197,-8.773322 5.92128,-17.008723 13.129182,-18.328254 3.776974,-0.69144 8.340114,0.611843 9.817471,2.803978 1.024614,1.520345 1.189378,2.894444 0.593036,4.945791 -1.115164,3.836029 -5.995187,6.939061 -12.453902,7.918991 -1.260239,0.191206 -2.507343,0.455202 -2.771343,0.586657 -0.633056,0.315223 -0.775852,2.458003 -0.312531,4.689808 0.956563,4.607742 5.046413,5.837401 10.481318,3.151326 2.253393,-1.113688 2.377963,-1.139289 2.804498,-0.576379 0.245499,0.323991 0.450941,0.689747 0.456538,0.81279 0.03899,0.857179 -6.019583,3.951425 -8.345233,4.26209 -2.821599,0.376916 -3.359087,0.389273 -5.212026,0.119825 z m 3.02291,-15.94207 c 3.557875,-1.351886 5.557088,-3.918381 5.574455,-7.15622 0.01152,-2.148188 -0.508208,-2.78734 -2.266538,-2.78734 -2.409168,0 -4.698795,3.680708 -6.021556,9.68 -0.242086,1.097964 0.363001,1.156732 2.713639,0.26356 z"
       id="path1" />
    <path
       style="fill:#9e2c2c;fill-opacity:1"
       d="m 102.93832,92.080004 c 0.25947,-1.333763 0.41981,-1.422721 3.03828,-1.685684 1.20226,-0.120739 2.24784,-0.319698 2.32351,-0.442132 0.13958,-0.225833 5.93989,-32.699891 5.93989,-33.255479 0,-0.166182 -0.9046,-0.399024 -2.01023,-0.517427 -2.606,-0.279079 -2.91459,-0.482494 -2.63855,-1.739305 l 0.21964,-0.999975 h 15.65457 c 14.6963,0 15.65449,0.03428 15.65322,0.56 -7.5e-4,0.308 -0.36075,2.568568 -0.8,5.023484 -0.43926,2.454916 -0.79864,4.506916 -0.79864,4.56 0,0.05308 -0.648,0.09652 -1.44,0.09652 h -1.44 v -3.160001 -3.16 l -1,-0.2 c -0.55,-0.11 -3.54785,-0.2 -6.66188,-0.2 h -5.66188 l -1.1871,6.800001 c -0.6529,3.74 -1.18305,6.98 -1.17812,7.2 0.007,0.297944 1.01825,0.4 3.96474,0.4 h 3.95577 l 0.78952,-2.16 0.78951,-2.16 1.49472,-0.09753 c 0.82209,-0.05364 1.49472,-0.01376 1.49472,0.08863 0,0.269869 -1.8807,10.755205 -2.08223,11.608899 -0.14501,0.614259 -0.38055,0.72 -1.60387,0.72 h -1.4339 v -2.24 -2.24 h -4.088 -4.08799 l -1.285,7.28 -1.28501,7.280001 5.933,0.09704 c 3.26315,0.05337 6.6769,0.0085 7.58612,-0.09967 1.582,-0.188245 1.67608,-0.254378 2.18675,-1.537041 0.29349,-0.737182 0.96702,-2.384332 1.49673,-3.660332 l 0.96312,-2.32 h 1.41014 c 0.96177,0 1.41014,0.135661 1.41014,0.426663 0,0.234664 -0.504,2.676405 -1.12,5.426091 -0.616,2.749686 -1.12,5.077688 -1.12,5.173338 0,0.09565 -7.5564,0.173909 -16.79201,0.173909 h -16.792 z"
       id="path4" />
    <path
       style="fill:#653668;fill-opacity:1"
       d="m 75.520003,92.406001 c -1.827214,-0.967508 -3.354534,-3.187521 -3.856523,-5.605587 -0.477557,-2.300382 -0.228476,-7.567777 0.480459,-10.160411 1.396917,-5.10864 4.578907,-9.367822 8.501349,-11.379291 1.852958,-0.950216 2.416749,-1.077835 5.274715,-1.193983 1.76,-0.07153 3.704001,0.0014 4.320001,0.161993 l 1.12,0.292042 0.86206,-5.599965 c 0.474133,-3.079981 0.801356,-5.698188 0.727161,-5.818238 -0.0742,-0.12005 -1.033117,-0.319894 -2.130937,-0.444098 -1.097821,-0.124204 -2.085034,-0.280829 -2.193807,-0.348054 -0.108773,-0.06723 -0.133435,-0.560569 -0.0548,-1.096318 l 0.142966,-0.974089 h 6.705245 c 6.235418,0 6.693688,0.03924 6.540358,0.56 -0.14348,0.487294 -6.918242,38.602922 -6.918242,38.922837 0,0.06665 0.663248,0.288195 1.473886,0.492316 1.2973,0.326664 1.45118,0.455817 1.284369,1.077989 -0.104234,0.388773 -0.191482,0.81486 -0.193886,0.94686 -0.0024,0.132 -2.308369,0.24 -5.124369,0.24 h -5.120001 v -1.908063 -1.908063 l -1.439993,1.399514 c -2.041801,1.984403 -4.005428,2.859252 -6.720007,2.993944 -1.878637,0.09321 -2.472304,-0.01186 -3.68,-0.651335 z m 9.411744,-5.10073 c 2.630388,-2.030783 2.652786,-2.088367 4.204284,-10.809422 0.783185,-4.402324 1.423973,-8.063205 1.423973,-8.135291 0,-0.320317 -2.680502,-1.160555 -3.702367,-1.160555 -2.84662,0 -5.049312,2.70683 -6.519274,8.011363 -1.896799,6.84483 -0.663362,13.893638 2.326542,13.295657 0.527222,-0.105444 1.547301,-0.646233 2.266842,-1.201752 z"
       id="path3" />
    <path
       style="fill:#2b3fa4;fill-opacity:1"
       d="m 49.063738,92.659366 c -3.137776,-0.981124 -4.899484,-2.761909 -5.894241,-5.958072 -2.328327,-7.480929 2.044902,-17.898821 9.069739,-21.605905 2.094435,-1.105256 2.60493,-1.237517 5.234532,-1.356187 3.752123,-0.169328 6.022618,0.446896 7.767116,2.108033 1.608274,1.531422 2.10227,3.213774 1.61324,5.494044 -0.924913,4.312722 -5.951107,7.631492 -13.300381,8.782174 l -2.513741,0.393579 0.03731,2.439675 c 0.04197,2.744642 0.697232,4.407557 2.169266,5.505156 0.702807,0.524038 1.360553,0.658141 3.228033,0.658141 2.122861,0 2.585267,-0.124716 4.873938,-1.314554 l 2.528564,-1.314553 0.706483,1.07775 0.706482,1.077749 -2.202487,1.424782 c -3.232509,2.0911 -6.369567,3.053912 -9.864009,3.027419 -1.552969,-0.01177 -3.424898,-0.209428 -4.159844,-0.439231 z m 5.09463,-16.176303 c 2.979662,-1.114834 5.361634,-4.1925 5.361634,-6.927585 0,-2.480274 -2.301874,-3.20437 -4.188635,-1.31761 -1.268418,1.268418 -2.670792,4.200531 -3.291596,6.882135 -0.54002,2.332656 -0.515332,2.348539 2.118597,1.36306 z"
       id="path2" />
  </g>
</svg>
